<svg xmlns="http://www.w3.org/2000/svg" width="256" height="256" viewBox="0 0 100 100"><rect width="100" height="100" rx="20" fill="#d0021b"></rect><path fill="#fff" d="M25.50 34.07L25.50 34.07Q30.80 34.07 33.75 36.32Q36.70 38.57 36.70 42.63L36.70 42.63Q36.70 43.97 36.27 45.07Q35.85 46.17 35.20 47Q34.55 47.82 33.75 48.40Q32.95 48.97 32.15 49.27L32.15 49.27Q33.15 49.63 34.13 50.22Q35.10 50.82 35.85 51.75Q36.60 52.67 37.08 53.90Q37.55 55.13 37.55 56.72L37.55 56.72Q37.55 58.92 36.67 60.63Q35.80 62.32 34.23 63.50Q32.65 64.67 30.45 65.27Q28.25 65.88 25.65 65.88L25.65 65.88Q23.30 65.88 21.45 65.52Q19.60 65.17 18.30 64.55Q17 63.92 16.32 63.07Q15.65 62.22 15.65 61.27L15.65 61.27Q15.65 60.22 16.17 59.47Q16.70 58.72 17.50 58.32L17.50 58.32Q18.65 59.17 20.40 59.95Q22.15 60.72 25 60.72L25 60.72Q27.95 60.72 29.57 59.57Q31.20 58.42 31.20 56.27L31.20 56.27Q31.20 54.27 29.77 53.15Q28.35 52.02 25.35 52.02L25.35 52.02L20.90 52.02Q20.65 51.63 20.45 50.97Q20.25 50.32 20.25 49.52L20.25 49.52Q20.25 48.67 20.45 48.02Q20.65 47.38 20.90 46.97L20.90 46.97L25.20 46.97Q27.90 46.97 29.13 45.92Q30.35 44.88 30.35 43.13L30.35 43.13Q30.35 41.27 28.90 40.22Q27.45 39.17 24.75 39.17L24.75 39.17Q22.50 39.17 20.85 39.80Q19.20 40.42 18.05 41.17L18.05 41.17Q17.40 40.72 16.90 40.02Q16.40 39.32 16.40 38.38L16.40 38.38Q16.40 37.42 17.07 36.63Q17.75 35.82 18.95 35.25Q20.15 34.67 21.82 34.38Q23.50 34.07 25.50 34.07ZM48.05 40.82L42.35 43.07Q41.65 42.72 41.05 42.02Q40.45 41.32 40.45 40.13L40.45 40.13Q40.45 37.92 43.20 36.88L43.20 36.88L49.50 34.42L50.90 34.42Q52.50 34.42 53.45 35.35Q54.40 36.27 54.40 37.88L54.40 37.88L54.40 65.17Q53.95 65.27 53.18 65.42Q52.40 65.58 51.50 65.58L51.50 65.58Q49.70 65.58 48.88 64.92Q48.05 64.27 48.05 62.63L48.05 62.63L48.05 40.82ZM82.10 37.82L82.10 37.82Q82.10 38.67 81.70 39.40Q81.30 40.13 80.75 40.52L80.75 40.52Q79.50 39.97 78.08 39.60Q76.65 39.22 75.25 39.22L75.25 39.22Q71.80 39.22 69.68 41.40Q67.55 43.57 67.20 47.97L67.20 47.97Q68.20 47.13 70.03 46.27Q71.85 45.42 74.25 45.42L74.25 45.42Q76.50 45.42 78.35 46.07Q80.20 46.72 81.55 48Q82.90 49.27 83.63 51.17Q84.35 53.07 84.35 55.52L84.35 55.52Q84.35 57.77 83.60 59.67Q82.85 61.57 81.40 62.95Q79.95 64.33 77.85 65.13Q75.75 65.92 73.05 65.92L73.05 65.92Q70.30 65.92 68.05 65Q65.80 64.08 64.20 62.20Q62.60 60.32 61.73 57.47Q60.85 54.63 60.85 50.82L60.85 50.82Q60.85 46.42 61.93 43.25Q63.00 40.07 64.88 38.02Q66.75 35.97 69.25 35.02Q71.75 34.07 74.60 34.07L74.60 34.07Q77.95 34.07 80.03 35.02Q82.10 35.97 82.10 37.82ZM73.10 60.82L73.10 60.82Q75.35 60.82 76.68 59.40Q78 57.97 78 55.47L78 55.47Q78 52.97 76.65 51.70Q75.30 50.42 73.05 50.42L73.05 50.42Q71.25 50.42 69.73 51.20Q68.20 51.97 67.30 53.13L67.30 53.13L67.40 53.63Q67.40 57.07 68.93 58.95Q70.45 60.82 73.10 60.82Z"></path></svg>