<svg xmlns="http://www.w3.org/2000/svg" width="256" height="256" viewBox="0 0 100 100"><rect width="100" height="100" rx="20" fill="#00577f"></rect><path fill="#fff" d="M19.85 30.92L19.85 30.92Q25.91 30.92 29.45 33.53Q32.99 36.14 32.99 41.06L32.99 41.06Q32.99 42.80 32.45 44.15Q31.91 45.50 31.07 46.49Q30.23 47.48 29.24 48.14Q28.25 48.80 27.35 49.04L27.35 49.04Q28.55 49.46 29.75 50.18Q30.95 50.90 31.88 52.04Q32.81 53.18 33.41 54.68Q34.01 56.18 34.01 58.10L34.01 58.10Q34.01 60.74 32.99 62.78Q31.97 64.82 30.11 66.20Q28.25 67.58 25.67 68.27Q23.09 68.96 20.03 68.96L20.03 68.96Q17.39 68.96 15.23 68.54Q13.07 68.12 11.54 67.43Q10.01 66.74 9.20 65.81Q8.39 64.88 8.39 63.86L8.39 63.86Q8.39 62.78 8.93 62.03Q9.47 61.28 10.31 60.80L10.31 60.80Q11.75 61.88 13.94 62.84Q16.13 63.80 19.67 63.80L19.67 63.80Q23.39 63.80 25.55 62.27Q27.71 60.74 27.71 57.74L27.71 57.74Q27.71 55.04 25.76 53.45Q23.81 51.86 19.85 51.86L19.85 51.86L14.69 51.86Q14.39 51.44 14.18 50.75Q13.97 50.06 13.97 49.28L13.97 49.28Q13.97 48.44 14.18 47.78Q14.39 47.12 14.69 46.70L14.69 46.70L19.55 46.70Q23.39 46.70 25.04 45.29Q26.69 43.88 26.69 41.42L26.69 41.42Q26.69 38.90 24.77 37.52Q22.85 36.14 19.37 36.14L19.37 36.14Q16.55 36.14 14.48 36.92Q12.41 37.70 11.03 38.66L11.03 38.66Q10.31 38.24 9.77 37.52Q9.23 36.80 9.23 35.78L9.23 35.78Q9.23 34.76 10.04 33.89Q10.85 33.02 12.26 32.36Q13.67 31.70 15.62 31.31Q17.57 30.92 19.85 30.92ZM53.57 34.76L53.57 68.24Q53.09 68.42 52.31 68.57Q51.53 68.72 50.63 68.72L50.63 68.72Q48.89 68.72 48.05 68.06Q47.21 67.40 47.21 65.78L47.21 65.78L47.21 37.82L40.01 40.94Q39.17 40.58 38.57 39.86Q37.97 39.14 37.97 37.94L37.97 37.94Q37.97 36.74 38.63 35.99Q39.29 35.24 40.73 34.64L40.73 34.64L48.65 31.34L50.09 31.34Q51.65 31.34 52.61 32.27Q53.57 33.20 53.57 34.76L53.57 34.76ZM85.19 50L85.19 50Q85.19 46.40 84.53 43.79Q83.87 41.18 82.76 39.50Q81.65 37.82 80.12 37.01Q78.59 36.20 76.79 36.20L76.79 36.20Q74.99 36.20 73.49 37.01Q71.99 37.82 70.85 39.53Q69.71 41.24 69.08 43.85Q68.45 46.46 68.45 50L68.45 50Q68.45 56.78 70.64 60.32Q72.83 63.86 76.79 63.86L76.79 63.86Q80.81 63.86 83.00 60.32Q85.19 56.78 85.19 50ZM76.79 69.08L76.79 69.08Q73.55 69.08 70.82 67.91Q68.09 66.74 66.17 64.34Q64.25 61.94 63.17 58.37Q62.09 54.80 62.09 50L62.09 50Q62.09 44.96 63.26 41.36Q64.43 37.76 66.47 35.45Q68.51 33.14 71.15 32.06Q73.79 30.98 76.79 30.98L76.79 30.98Q79.79 30.98 82.49 32.09Q85.19 33.20 87.20 35.54Q89.21 37.88 90.41 41.48Q91.61 45.08 91.61 50L91.61 50Q91.61 54.80 90.53 58.37Q89.45 61.94 87.50 64.34Q85.55 66.74 82.82 67.91Q80.09 69.08 76.79 69.08Z"></path></svg>